<svg width="160" height="160" viewBox="0 0 160 160" fill="none" xmlns="http://www.w3.org/2000/svg">
<path d="M0 80C0 101.217 8.42855 121.566 23.4315 136.569C38.4344 151.571 58.7827 160 80 160C101.217 160 121.566 151.571 136.569 136.569C151.571 121.566 160 101.217 160 80C160 58.7827 151.571 38.4344 136.569 23.4315C121.566 8.42855 101.217 0 80 0C58.7827 0 38.4344 8.42855 23.4315 23.4315C8.42855 38.4344 0 58.7827 0 80Z" fill="white"/>
<path d="M24.576 111.222C24.6852 115.614 26.3104 119.832 29.176 123.162" stroke="#394647" stroke-linecap="round" stroke-linejoin="round"/>
<path d="M20.9696 117.814C22.3827 122.088 25.2116 125.751 28.9888 128.198" stroke="#394647" stroke-linecap="round" stroke-linejoin="round"/>
<path d="M108.776 89.12C111.272 91.84 112.109 95.6256 109.941 101.294" stroke="#394647" stroke-linecap="round" stroke-linejoin="round"/>
<path d="M111.248 84.984C114.395 86.9248 116.234 90.328 115.701 96.3744" stroke="#394647" stroke-linecap="round" stroke-linejoin="round"/>
<path d="M50.4608 147.354C50.4608 148.022 52.6962 148.663 56.6753 149.136C60.6544 149.608 66.0511 149.874 71.6784 149.874C77.3057 149.874 82.7024 149.608 86.6815 149.136C90.6606 148.663 92.896 148.022 92.896 147.354C92.896 146.685 90.6606 146.044 86.6815 145.572C82.7024 145.099 77.3057 144.834 71.6784 144.834C66.0511 144.834 60.6544 145.099 56.6753 145.572C52.6962 146.044 50.4608 146.685 50.4608 147.354Z" fill="#FFDBCC"/>
<path d="M48.2743 141.688L48.2737 141.688C47.9122 141.837 47.5147 141.875 47.1314 141.798C46.7481 141.721 46.3963 141.532 46.1205 141.255C45.8447 140.978 45.6572 140.625 45.5818 140.241C45.5063 139.858 45.5463 139.46 45.6967 139.1L45.6967 139.1L48.9863 131.205C49.0862 130.965 49.2323 130.748 49.4163 130.565C49.6002 130.381 49.8185 130.236 50.0586 130.137C50.2986 130.039 50.5558 129.988 50.8154 129.989C51.0751 129.989 51.332 130.041 51.5717 130.141C51.8113 130.241 52.0289 130.387 52.2121 130.571C52.3953 130.755 52.5405 130.973 52.6393 131.213C52.7382 131.453 52.7887 131.71 52.7882 131.97C52.7876 132.229 52.7359 132.486 52.6361 132.726L49.3449 140.62L49.3445 140.621C49.2452 140.861 49.0996 141.079 48.9159 141.262C48.7323 141.445 48.5142 141.589 48.2743 141.688Z" fill="#FFDBCC" stroke="#394647" stroke-linecap="round" stroke-linejoin="round"/>
<path d="M92.6379 136.999C92.2802 137.154 91.8845 137.2 91.5007 137.13C90.9875 137.036 90.5325 136.743 90.2353 136.314C90.2352 136.314 90.2351 136.314 90.235 136.314L85.379 129.285C85.1176 128.856 85.029 128.344 85.1317 127.852C85.2352 127.356 85.5251 126.919 85.9415 126.631C86.358 126.343 86.8692 126.225 87.3697 126.303C87.8661 126.38 88.3145 126.643 88.6238 127.038L93.4807 134.066C93.4808 134.066 93.4809 134.066 93.481 134.066C93.7018 134.388 93.8225 134.767 93.828 135.157C93.8336 135.547 93.7235 135.93 93.5117 136.258C93.2999 136.586 92.9959 136.843 92.6379 136.999Z" fill="#FFDBCC" stroke="#394647" stroke-linecap="round" stroke-linejoin="round"/>
<path d="M37.3654 118.309C39.2625 122.087 41.8853 125.455 45.084 128.22C48.2827 130.985 51.9947 133.093 56.008 134.424C60.0214 135.754 64.2575 136.281 68.4745 135.975C72.6915 135.668 76.8069 134.534 80.5855 132.637C84.3642 130.74 87.7322 128.117 90.4972 124.918C93.2623 121.719 95.3702 118.007 96.7007 113.994C98.0312 109.981 98.5581 105.745 98.2515 101.528C97.9448 97.3105 96.8106 93.1952 94.9135 89.4165C93.0164 85.6379 90.3937 82.2698 87.1949 79.5048C83.9962 76.7398 80.2842 74.6318 76.2709 73.3013C72.2575 71.9709 68.0214 71.4439 63.8044 71.7505C59.5874 72.0572 55.4721 73.1914 51.6934 75.0885C47.9148 76.9856 44.5468 79.6084 41.7817 82.8071C39.0167 86.0058 36.9087 89.7178 35.5782 93.7311C34.2478 97.7445 33.7208 101.981 34.0274 106.198C34.3341 110.415 35.4683 114.53 37.3654 118.309Z" fill="#FFDBCC"/>
<path d="M45.411 127.842C42.2619 125.12 39.6799 121.804 37.8123 118.084C35.9446 114.364 34.828 110.313 34.5261 106.161C34.2242 102.01 34.743 97.8395 36.0528 93.8885C37.3627 89.9374 39.4379 86.2831 42.16 83.1341C44.8821 79.985 48.1978 77.403 51.9178 75.5354C55.6377 73.6677 59.6891 72.5511 63.8407 72.2492C67.9922 71.9473 72.1625 72.4661 76.1136 73.7759C80.0646 75.0858 83.7189 77.161 86.868 79.8831C90.017 82.6052 92.599 85.9209 94.4667 89.6409C96.3343 93.3608 97.4509 97.4122 97.7528 101.564C98.0547 105.715 97.5359 109.886 96.2261 113.837C94.9163 117.788 92.8411 121.442 90.119 124.591C87.3969 127.74 84.0812 130.322 80.3612 132.19C76.6412 134.057 72.5898 135.174 68.4383 135.476C64.2867 135.778 60.1164 135.259 56.1654 133.949C52.2143 132.639 48.56 130.564 45.411 127.842Z" stroke="#394647" stroke-linecap="round" stroke-linejoin="round"/>
<path d="M47.8281 118.612C45.8909 116.208 44.4464 113.445 43.577 110.482C42.7075 107.519 42.4302 104.414 42.7609 101.343C43.0915 98.2732 44.0237 95.2982 45.5041 92.5882C46.9845 89.8782 48.9842 87.4864 51.3889 85.5493C53.7937 83.6121 56.5565 82.1676 59.5195 81.2982C62.4825 80.4287 65.5878 80.1514 68.658 80.4821C71.7282 80.8127 74.7032 81.7449 77.4132 83.2253C80.1231 84.7057 82.515 86.7054 84.4521 89.1101C86.3893 91.5149 87.8338 94.2777 88.7032 97.2407C89.5726 100.204 89.8499 103.309 89.5193 106.379C89.1886 109.449 88.2565 112.424 86.7761 115.134C85.2957 117.844 83.296 120.236 80.8912 122.173C78.4865 124.11 75.7237 125.555 72.7607 126.424C69.7976 127.294 66.6924 127.571 63.6222 127.24C60.552 126.91 57.577 125.978 54.867 124.497C52.157 123.017 49.7652 121.017 47.8281 118.612Z" fill="#F7F7F2" stroke="#394647" stroke-linecap="round" stroke-linejoin="round"/>
<path d="M68.0404 104.383C68.0356 104.4 68.0317 104.417 68.0287 104.434C67.9552 104.68 67.835 104.909 67.6747 105.109C67.6745 105.109 67.6743 105.109 67.674 105.109L62.4817 111.525L62.4816 111.526C62.3183 111.728 62.1169 111.895 61.8888 112.019C61.6607 112.143 61.4104 112.221 61.1521 112.249C60.8939 112.276 60.6329 112.252 60.3838 112.179C60.1348 112.105 59.9027 111.983 59.7008 111.82C59.4989 111.657 59.3311 111.455 59.207 111.227C59.0829 110.999 59.005 110.749 58.9777 110.491C58.9503 110.232 58.9741 109.971 59.0477 109.722C59.1212 109.473 59.2431 109.241 59.4064 109.039L63.9535 103.418C64.0369 103.315 64.076 103.183 64.062 103.052L62.6108 89.2916L62.6108 89.2915C62.5558 88.7701 62.7101 88.2482 63.0399 87.8406C63.3697 87.433 63.8479 87.1731 64.3693 87.118C64.8907 87.063 65.4126 87.2173 65.8202 87.5471L66.1347 87.1584L65.8202 87.5471C66.2278 87.8769 66.4877 88.3551 66.5428 88.8765L66.5428 88.8765L68.1041 103.652C68.1042 103.652 68.1042 103.653 68.1042 103.653C68.1289 103.898 68.1073 104.146 68.0404 104.383Z" fill="#FFDBCC" stroke="#394647" stroke-linecap="round" stroke-linejoin="round"/>
<path d="M32.2624 96.2992C31.9271 96.5765 31.5404 96.7848 31.1244 96.9123C30.7084 97.0397 30.2713 97.0837 29.8383 97.0418C29.4052 96.9999 28.9847 96.8728 28.6009 96.668C28.217 96.4631 27.8774 96.1845 27.6016 95.848C25.2668 93.0455 23.9764 89.52 23.9504 85.8725C23.9244 82.2249 25.1644 78.6813 27.4591 75.8459C29.7537 73.0105 32.9608 71.0588 36.5336 70.3236C40.1063 69.5884 43.8235 70.1153 47.0512 71.8144C47.4376 72.0142 47.7807 72.2883 48.0609 72.621C48.3411 72.9537 48.5529 73.3384 48.6842 73.7531C48.8154 74.1679 48.8635 74.6044 48.8258 75.0377C48.788 75.4711 48.665 75.8927 48.464 76.2784C46.3319 80.0273 43.8567 83.5705 41.0704 86.8624C38.4323 90.2734 35.4837 93.4325 32.2624 96.2992Z" fill="#F7F7F2"/>
<path d="M27.9882 95.531L27.9883 95.531L27.9857 95.528C25.725 92.8144 24.4755 89.4007 24.4504 85.8689C24.4252 82.3371 25.6259 78.9059 27.8477 76.1604C30.0696 73.415 33.1749 71.5252 36.6344 70.8133C40.0938 70.1015 43.693 70.6116 46.8183 72.2569L46.8215 72.2585C47.1494 72.4281 47.4407 72.6608 47.6785 72.9431C47.9163 73.2255 48.0961 73.552 48.2075 73.904C48.3189 74.256 48.3597 74.6265 48.3277 74.9943C48.2958 75.3592 48.1929 75.7142 48.0247 76.0395C45.9089 79.7585 43.4531 83.2735 40.6888 86.5394C40.6865 86.5421 40.6842 86.5448 40.682 86.5476C40.6796 86.5505 40.6772 86.5535 40.6749 86.5565C38.0576 89.9406 35.1325 93.0749 31.937 95.9194C31.654 96.152 31.3282 96.3269 30.9779 96.4342L31.1244 96.9123L30.9779 96.4342C30.6249 96.5424 30.254 96.5797 29.8864 96.5441C29.5189 96.5086 29.162 96.4007 28.8363 96.2269C28.5106 96.053 28.2224 95.8165 27.9882 95.531Z" stroke="#394647" stroke-linecap="round" stroke-linejoin="round"/>
<path d="M98.6432 89.0736C99.0383 89.2571 99.4658 89.3606 99.9011 89.3782C100.336 89.3958 100.771 89.3272 101.179 89.1762C101.588 89.0253 101.963 88.795 102.282 88.4987C102.601 88.2024 102.859 87.8458 103.04 87.4496C104.586 84.1437 104.937 80.4037 104.033 76.8679C103.129 73.332 101.025 70.2197 98.0818 68.062C95.1384 65.9043 91.5373 64.835 87.8932 65.0367C84.2492 65.2384 80.7881 66.6986 78.1008 69.168C77.7778 69.4597 77.5156 69.8123 77.3293 70.2056C77.1429 70.5988 77.036 71.025 77.0148 71.4597C76.9935 71.8944 77.0583 72.3289 77.2054 72.7385C77.3525 73.1481 77.579 73.5246 77.872 73.8464C80.8897 76.9271 84.1865 79.7214 87.72 82.1936C91.1403 84.8201 94.797 87.1233 98.6432 89.0736Z" fill="#F7F7F2"/>
<path d="M98.6432 89.0736C99.0383 89.2571 99.4658 89.3606 99.9011 89.3782C100.336 89.3958 100.771 89.3272 101.179 89.1762C101.588 89.0253 101.963 88.795 102.282 88.4987C102.601 88.2024 102.859 87.8458 103.04 87.4496C104.586 84.1437 104.937 80.4037 104.033 76.8679C103.129 73.332 101.025 70.2197 98.0818 68.062C95.1384 65.9043 91.5373 64.835 87.8932 65.0367C84.2492 65.2384 80.7881 66.6986 78.1008 69.168C77.7778 69.4597 77.5156 69.8123 77.3293 70.2056C77.1429 70.5988 77.036 71.025 77.0148 71.4597C76.9935 71.8944 77.0583 72.3289 77.2054 72.7385C77.3525 73.1481 77.579 73.5246 77.872 73.8464C80.8897 76.9271 84.1865 79.7214 87.72 82.1936C91.1403 84.8201 94.797 87.1233 98.6432 89.0736Z" stroke="#394647" stroke-linecap="round" stroke-linejoin="round"/>
<path d="M108.885 5.1392C103.687 5.63165 98.6799 7.35033 94.2753 10.1541C89.8707 12.9578 86.1942 16.7665 83.5478 21.2674C80.9014 25.7682 79.3606 30.8328 79.052 36.0449C78.7434 41.257 79.6759 46.4679 81.7728 51.2496L73.8112 69.448C73.6875 69.7358 73.6481 70.0528 73.6977 70.3622C73.7472 70.6715 73.8836 70.9603 74.0911 71.1951C74.2985 71.4298 74.5684 71.6008 74.8692 71.6881C75.1701 71.7754 75.4895 71.7753 75.7904 71.688L94.7392 66.1152C99.1989 68.8609 104.248 70.5062 109.469 70.9153C114.69 71.3243 119.934 70.4854 124.767 68.4677C129.6 66.45 133.883 63.3115 137.264 59.3113C140.644 55.3112 143.025 50.5642 144.208 45.4625C145.392 40.3608 145.344 35.0507 144.07 29.9708C142.796 24.8909 140.332 20.187 136.881 16.2475C133.43 12.3081 129.092 9.24617 124.224 7.31465C119.356 5.38314 114.098 4.63746 108.885 5.1392Z" fill="#F7F7F2"/>
<path d="M108.932 5.63697L108.933 5.6369C114.067 5.14276 119.245 5.87714 124.039 7.7794C128.834 9.68167 133.106 12.6972 136.505 16.577C139.904 20.4568 142.331 25.0895 143.585 30.0924C144.84 35.0954 144.887 40.3251 143.721 45.3495C142.555 50.374 140.211 55.049 136.882 58.9886C133.553 62.9281 129.334 66.0191 124.574 68.0063C119.815 69.9934 114.65 70.8197 109.508 70.4168C104.366 70.014 99.3935 68.3936 95.0013 65.6894C94.8806 65.6151 94.7341 65.5955 94.5981 65.6355L75.651 71.2078C75.6508 71.2079 75.6507 71.2079 75.6505 71.208C75.4408 71.2687 75.2182 71.2687 75.0085 71.2079C74.7987 71.147 74.6104 71.0278 74.4658 70.864L74.0914 71.1948L74.4658 70.864C74.3211 70.7003 74.2259 70.4988 74.1914 70.2831C74.1569 70.0679 74.1841 69.8473 74.2699 69.647C74.2701 69.6465 74.2703 69.646 74.2706 69.6455L82.2309 51.45C82.2868 51.3221 82.2868 51.1766 82.2307 51.0488C80.1656 46.3396 79.2472 41.2076 79.5511 36.0744C79.855 30.9413 81.3725 25.9535 83.9788 21.5208C86.5851 17.0881 90.2059 13.3371 94.5438 10.5759C98.8817 7.8146 103.813 6.12196 108.932 5.63697Z" stroke="#394647" stroke-linecap="round" stroke-linejoin="round"/>
<path d="M108.885 5.1392C103.687 5.63165 98.6799 7.35033 94.2753 10.1541C89.8707 12.9578 86.1942 16.7665 83.5478 21.2674C80.9014 25.7682 79.3606 30.8328 79.052 36.0449C78.7434 41.257 79.6759 46.4679 81.7728 51.2496L73.8112 69.448C73.6875 69.7358 73.6481 70.0528 73.6977 70.3622C73.7472 70.6715 73.8836 70.9603 74.0911 71.1951C74.2985 71.4298 74.5684 71.6008 74.8692 71.6881C75.1701 71.7754 75.4895 71.7753 75.7904 71.688L94.7392 66.1152C99.1989 68.8609 104.248 70.5062 109.469 70.9153C114.69 71.3243 119.934 70.4854 124.767 68.4677C129.6 66.45 133.883 63.3115 137.264 59.3113C140.644 55.3112 143.025 50.5642 144.208 45.4625C145.392 40.3608 145.344 35.0507 144.07 29.9708C142.796 24.8909 140.332 20.187 136.881 16.2475C133.43 12.3081 129.092 9.24617 124.224 7.31465C119.356 5.38314 114.098 4.63746 108.885 5.1392Z" fill="#F7F7F2"/>
<path d="M108.932 5.63697L108.933 5.6369C114.067 5.14276 119.245 5.87714 124.039 7.7794C128.834 9.68167 133.106 12.6972 136.505 16.577C139.904 20.4568 142.331 25.0895 143.585 30.0924C144.84 35.0954 144.887 40.3251 143.721 45.3495C142.555 50.374 140.211 55.049 136.882 58.9886C133.553 62.9281 129.334 66.0191 124.574 68.0063C119.815 69.9934 114.65 70.8197 109.508 70.4168C104.366 70.014 99.3935 68.3936 95.0013 65.6894C94.8806 65.6151 94.7341 65.5955 94.5981 65.6355L75.651 71.2078C75.6508 71.2079 75.6507 71.2079 75.6505 71.208C75.4408 71.2687 75.2182 71.2687 75.0085 71.2079C74.7987 71.147 74.6104 71.0278 74.4658 70.864L74.0914 71.1948L74.4658 70.864C74.3211 70.7003 74.2259 70.4988 74.1914 70.2831C74.1569 70.0679 74.1841 69.8473 74.2699 69.647C74.2701 69.6465 74.2703 69.646 74.2706 69.6455L82.2309 51.45C82.2868 51.3221 82.2868 51.1766 82.2307 51.0488C80.1656 46.3396 79.2472 41.2076 79.5511 36.0744C79.855 30.9413 81.3725 25.9535 83.9788 21.5208C86.5851 17.0881 90.2059 13.3371 94.5438 10.5759C98.8817 7.8146 103.813 6.12196 108.932 5.63697Z" stroke="#394647" stroke-linecap="round" stroke-linejoin="round"/>
<path d="M106.124 20.5657L106.125 20.5657L106.123 20.5529C106.047 19.7508 106.14 18.9417 106.395 18.1774C106.65 17.4131 107.061 16.7105 107.603 16.1146C108.146 15.5186 108.806 15.0425 109.543 14.7167C110.28 14.3909 111.077 14.2226 111.882 14.2226C112.688 14.2226 113.485 14.3909 114.222 14.7167C114.959 15.0425 115.619 15.5186 116.161 16.1146C116.704 16.7105 117.115 17.4131 117.37 18.1774C117.625 18.9417 117.717 19.7508 117.641 20.5529L117.642 20.5529C117.642 20.5536 117.642 20.5543 117.642 20.555C117.642 20.5832 117.642 20.5993 117.096 22.7474C116.919 23.4466 116.684 24.3707 116.373 25.5939C115.642 28.4705 114.491 33.0019 112.676 40.1561C112.63 40.3324 112.527 40.4887 112.383 40.6003C112.239 40.712 112.062 40.7726 111.88 40.7726C111.698 40.7726 111.521 40.712 111.377 40.6003C111.233 40.4887 111.13 40.3325 111.084 40.1562C109.288 33.0736 108.14 28.5611 107.408 25.6803C107.086 24.4153 106.845 23.4649 106.663 22.7498C106.117 20.5993 106.12 20.5877 106.124 20.5734C106.124 20.5718 106.125 20.5702 106.124 20.5657Z" fill="#FFDBCC" stroke="#394647" stroke-linecap="round" stroke-linejoin="round"/>
<path d="M111.878 57.332C110.901 57.3319 109.947 57.0423 109.135 56.5C108.322 55.9575 107.689 55.1864 107.315 54.2841C106.941 53.3819 106.843 52.389 107.033 51.4309C107.223 50.4729 107.693 49.5926 108.383 48.9015C109.073 48.2103 109.952 47.7392 110.91 47.5478C111.868 47.3564 112.861 47.4532 113.764 47.826C114.667 48.1987 115.439 48.8308 115.982 49.6422C116.526 50.4534 116.817 51.4075 116.818 52.3839C116.817 53.6946 116.296 54.9513 115.37 55.8788C114.444 56.8063 113.188 57.3288 111.878 57.332Z" fill="#FFDBCC" stroke="#394647" stroke-linecap="round" stroke-linejoin="round"/>
</svg>
