<svg width="35px" height="35px" viewBox="0 0 35 35" version="1.1" xmlns="http://www.w3.org/2000/svg" xmlns:xlink="http://www.w3.org/1999/xlink">
            <title>Amblem_Dark</title>
            <g id="Desktop" stroke="none" stroke-width="1" fill="none" fill-rule="evenodd">
              <g id="Amblem_Dark" transform="translate(0.000000, 0.000000)" fill="#0641C3">
                <path d="M0,23.9999999 L0,34.9999999 L24.2249746,34.9999999 L24.2253764,34.9999999 C30.1760573,34.9999999 35,30.0751533 35,23.9999999 L0,23.9999999 Z M24.2253764,12 L0,12 L0,23 L35,23 C35,16.9248466 30.1760573,12 24.2253764,12 L24.2253764,12 Z M24.2249746,11 L0,11 L0,0 L24.2253764,0 L35,0 C35,6.07515333 30.1760573,11 24.2253764,11 C24.2253764,11 24.2251755,11 24.2249746,11 L24.2249746,11 Z" id="Amblem"></path>
              </g>
            </g>
          </svg>